<mxfile host="app.diagrams.net" modified="2022-06-19T13:27:50.828Z" agent="5.0 (Windows NT 10.0; Win64; x64) AppleWebKit/537.36 (KHTML, like Gecko) Chrome/102.0.5005.115 Safari/537.36" etag="F4ifkxP_sHLUe8TaR3ma" version="20.0.1" type="github">
  <diagram id="kr7Q131r15E99vDvzFHY" name="Page-1">
    <mxGraphModel dx="1335" dy="692" grid="0" gridSize="10" guides="1" tooltips="1" connect="1" arrows="1" fold="1" page="0" pageScale="1" pageWidth="827" pageHeight="1169" math="0" shadow="0">
      <root>
        <mxCell id="0" />
        <mxCell id="1" parent="0" />
        <mxCell id="gIlKsOwYRyPRbe765wBf-1" value="пользователь" style="rounded=0;whiteSpace=wrap;html=1;fillColor=#dae8fc;strokeColor=#6c8ebf;fontStyle=1;fontSize=15;" vertex="1" parent="1">
          <mxGeometry x="120" y="120" width="120" height="40" as="geometry" />
        </mxCell>
        <mxCell id="gIlKsOwYRyPRbe765wBf-2" value="виртуальный ассистент" style="rounded=0;whiteSpace=wrap;html=1;fillColor=#dae8fc;strokeColor=#6c8ebf;fontStyle=1;fontSize=15;" vertex="1" parent="1">
          <mxGeometry x="360" y="120" width="120" height="40" as="geometry" />
        </mxCell>
        <mxCell id="gIlKsOwYRyPRbe765wBf-3" value="интернет" style="rounded=0;whiteSpace=wrap;html=1;fillColor=#dae8fc;strokeColor=#6c8ebf;fontStyle=1;fontSize=15;" vertex="1" parent="1">
          <mxGeometry x="600" y="120" width="120" height="40" as="geometry" />
        </mxCell>
        <mxCell id="gIlKsOwYRyPRbe765wBf-4" value="операционная система" style="rounded=0;whiteSpace=wrap;html=1;fillColor=#dae8fc;strokeColor=#6c8ebf;fontStyle=1;fontSize=15;" vertex="1" parent="1">
          <mxGeometry x="840" y="120" width="120" height="40" as="geometry" />
        </mxCell>
        <mxCell id="gIlKsOwYRyPRbe765wBf-6" value="" style="sketch=0;aspect=fixed;html=1;points=[];align=center;image;fontSize=15;image=img/lib/mscae/Person.svg;fontStyle=0" vertex="1" parent="1">
          <mxGeometry x="161.5" y="70" width="37" height="50" as="geometry" />
        </mxCell>
        <mxCell id="gIlKsOwYRyPRbe765wBf-7" value="" style="endArrow=none;dashed=1;html=1;rounded=0;entryX=0.5;entryY=1;entryDx=0;entryDy=0;startArrow=none;fontStyle=0;fontSize=15;" edge="1" parent="1" source="gIlKsOwYRyPRbe765wBf-12" target="gIlKsOwYRyPRbe765wBf-1">
          <mxGeometry width="50" height="50" relative="1" as="geometry">
            <mxPoint x="180" y="561" as="sourcePoint" />
            <mxPoint x="560" y="210" as="targetPoint" />
          </mxGeometry>
        </mxCell>
        <mxCell id="gIlKsOwYRyPRbe765wBf-8" value="" style="endArrow=none;dashed=1;html=1;rounded=0;entryX=0.5;entryY=1;entryDx=0;entryDy=0;startArrow=none;fontStyle=0;fontSize=15;" edge="1" parent="1" source="gIlKsOwYRyPRbe765wBf-16">
          <mxGeometry width="50" height="50" relative="1" as="geometry">
            <mxPoint x="419.5" y="561" as="sourcePoint" />
            <mxPoint x="419.5" y="160" as="targetPoint" />
          </mxGeometry>
        </mxCell>
        <mxCell id="gIlKsOwYRyPRbe765wBf-9" value="" style="endArrow=none;dashed=1;html=1;rounded=0;entryX=0.5;entryY=1;entryDx=0;entryDy=0;fontStyle=0;fontSize=15;startArrow=none;" edge="1" parent="1" source="gIlKsOwYRyPRbe765wBf-17">
          <mxGeometry width="50" height="50" relative="1" as="geometry">
            <mxPoint x="659.5" y="561" as="sourcePoint" />
            <mxPoint x="659.5" y="160" as="targetPoint" />
          </mxGeometry>
        </mxCell>
        <mxCell id="gIlKsOwYRyPRbe765wBf-10" value="" style="endArrow=none;dashed=1;html=1;rounded=0;entryX=0.5;entryY=1;entryDx=0;entryDy=0;startArrow=none;fontStyle=0;fontSize=15;" edge="1" parent="1" source="gIlKsOwYRyPRbe765wBf-18">
          <mxGeometry width="50" height="50" relative="1" as="geometry">
            <mxPoint x="899.5" y="561" as="sourcePoint" />
            <mxPoint x="899.5" y="160" as="targetPoint" />
          </mxGeometry>
        </mxCell>
        <mxCell id="gIlKsOwYRyPRbe765wBf-11" value="" style="rounded=0;whiteSpace=wrap;html=1;fontStyle=0;fontSize=15;" vertex="1" parent="1">
          <mxGeometry x="175" y="180" width="10" height="140" as="geometry" />
        </mxCell>
        <mxCell id="gIlKsOwYRyPRbe765wBf-13" value="" style="rounded=0;whiteSpace=wrap;html=1;fontStyle=0;fontSize=15;" vertex="1" parent="1">
          <mxGeometry x="175" y="542" width="10" height="110" as="geometry" />
        </mxCell>
        <mxCell id="gIlKsOwYRyPRbe765wBf-14" value="" style="endArrow=none;dashed=1;html=1;rounded=0;entryX=0.5;entryY=1;entryDx=0;entryDy=0;fontStyle=0;fontSize=15;" edge="1" parent="1" target="gIlKsOwYRyPRbe765wBf-13">
          <mxGeometry width="50" height="50" relative="1" as="geometry">
            <mxPoint x="180" y="746" as="sourcePoint" />
            <mxPoint x="180" y="160" as="targetPoint" />
          </mxGeometry>
        </mxCell>
        <mxCell id="gIlKsOwYRyPRbe765wBf-33" style="edgeStyle=orthogonalEdgeStyle;rounded=0;orthogonalLoop=1;jettySize=auto;html=1;exitX=1;exitY=0.75;exitDx=0;exitDy=0;fontStyle=0;fontSize=15;" edge="1" parent="1" source="gIlKsOwYRyPRbe765wBf-12">
          <mxGeometry relative="1" as="geometry">
            <mxPoint x="400" y="453" as="targetPoint" />
          </mxGeometry>
        </mxCell>
        <mxCell id="gIlKsOwYRyPRbe765wBf-34" value="Указать информацию из устройств" style="edgeLabel;html=1;align=center;verticalAlign=middle;resizable=0;points=[];fontStyle=0;fontSize=15;" vertex="1" connectable="0" parent="gIlKsOwYRyPRbe765wBf-33">
          <mxGeometry x="0.1796" relative="1" as="geometry">
            <mxPoint x="-12" y="23" as="offset" />
          </mxGeometry>
        </mxCell>
        <mxCell id="gIlKsOwYRyPRbe765wBf-12" value="" style="rounded=0;whiteSpace=wrap;html=1;fontStyle=0;fontSize=15;" vertex="1" parent="1">
          <mxGeometry x="175" y="415" width="10" height="50" as="geometry" />
        </mxCell>
        <mxCell id="gIlKsOwYRyPRbe765wBf-15" value="" style="endArrow=none;dashed=1;html=1;rounded=0;entryX=0.5;entryY=1;entryDx=0;entryDy=0;startArrow=none;fontStyle=0;fontSize=15;" edge="1" parent="1" source="gIlKsOwYRyPRbe765wBf-13" target="gIlKsOwYRyPRbe765wBf-12">
          <mxGeometry width="50" height="50" relative="1" as="geometry">
            <mxPoint x="180" y="430" as="sourcePoint" />
            <mxPoint x="180" y="160" as="targetPoint" />
          </mxGeometry>
        </mxCell>
        <mxCell id="gIlKsOwYRyPRbe765wBf-55" style="edgeStyle=orthogonalEdgeStyle;rounded=0;orthogonalLoop=1;jettySize=auto;html=1;exitX=0;exitY=0.75;exitDx=0;exitDy=0;dashed=1;fontSize=15;" edge="1" parent="1" source="gIlKsOwYRyPRbe765wBf-18">
          <mxGeometry relative="1" as="geometry">
            <mxPoint x="430.2105263157896" y="556.5263157894738" as="targetPoint" />
          </mxGeometry>
        </mxCell>
        <mxCell id="gIlKsOwYRyPRbe765wBf-57" value="передача результат&amp;nbsp;" style="edgeLabel;html=1;align=center;verticalAlign=middle;resizable=0;points=[];fontSize=15;" vertex="1" connectable="0" parent="gIlKsOwYRyPRbe765wBf-55">
          <mxGeometry x="-0.1233" y="-2" relative="1" as="geometry">
            <mxPoint x="-26" y="12" as="offset" />
          </mxGeometry>
        </mxCell>
        <mxCell id="gIlKsOwYRyPRbe765wBf-18" value="" style="rounded=0;whiteSpace=wrap;html=1;fontStyle=0;fontSize=15;" vertex="1" parent="1">
          <mxGeometry x="895" y="489" width="10" height="90" as="geometry" />
        </mxCell>
        <mxCell id="gIlKsOwYRyPRbe765wBf-19" value="" style="endArrow=none;dashed=1;html=1;rounded=0;entryX=0.5;entryY=1;entryDx=0;entryDy=0;fontStyle=0;fontSize=15;" edge="1" parent="1" target="gIlKsOwYRyPRbe765wBf-18">
          <mxGeometry width="50" height="50" relative="1" as="geometry">
            <mxPoint x="900" y="714" as="sourcePoint" />
            <mxPoint x="899.5" y="160" as="targetPoint" />
          </mxGeometry>
        </mxCell>
        <mxCell id="gIlKsOwYRyPRbe765wBf-45" style="edgeStyle=orthogonalEdgeStyle;rounded=0;orthogonalLoop=1;jettySize=auto;html=1;exitX=1;exitY=0.5;exitDx=0;exitDy=0;fontSize=15;dashed=1;" edge="1" parent="1" source="gIlKsOwYRyPRbe765wBf-16" target="gIlKsOwYRyPRbe765wBf-16">
          <mxGeometry relative="1" as="geometry">
            <mxPoint x="450" y="510" as="targetPoint" />
            <Array as="points">
              <mxPoint x="425" y="459" />
              <mxPoint x="445" y="459" />
              <mxPoint x="445" y="490" />
            </Array>
          </mxGeometry>
        </mxCell>
        <mxCell id="gIlKsOwYRyPRbe765wBf-46" value="обработка" style="edgeLabel;html=1;align=center;verticalAlign=middle;resizable=0;points=[];fontSize=15;" vertex="1" connectable="0" parent="gIlKsOwYRyPRbe765wBf-45">
          <mxGeometry x="0.0086" y="1" relative="1" as="geometry">
            <mxPoint x="47" y="13" as="offset" />
          </mxGeometry>
        </mxCell>
        <mxCell id="gIlKsOwYRyPRbe765wBf-56" style="edgeStyle=orthogonalEdgeStyle;rounded=0;orthogonalLoop=1;jettySize=auto;html=1;exitX=1;exitY=0.5;exitDx=0;exitDy=0;entryX=0;entryY=0.25;entryDx=0;entryDy=0;fontSize=15;" edge="1" parent="1" source="gIlKsOwYRyPRbe765wBf-16" target="gIlKsOwYRyPRbe765wBf-18">
          <mxGeometry relative="1" as="geometry">
            <Array as="points">
              <mxPoint x="425" y="512" />
            </Array>
          </mxGeometry>
        </mxCell>
        <mxCell id="gIlKsOwYRyPRbe765wBf-58" value="обращение к определённой системе" style="edgeLabel;html=1;align=center;verticalAlign=middle;resizable=0;points=[];fontSize=15;" vertex="1" connectable="0" parent="gIlKsOwYRyPRbe765wBf-56">
          <mxGeometry x="0.2051" y="-1" relative="1" as="geometry">
            <mxPoint x="-5" y="-16" as="offset" />
          </mxGeometry>
        </mxCell>
        <mxCell id="gIlKsOwYRyPRbe765wBf-16" value="" style="rounded=0;whiteSpace=wrap;html=1;fontStyle=0;fontSize=15;" vertex="1" parent="1">
          <mxGeometry x="415" y="320" width="10" height="425" as="geometry" />
        </mxCell>
        <mxCell id="gIlKsOwYRyPRbe765wBf-20" value="" style="endArrow=none;dashed=1;html=1;rounded=0;entryX=0.5;entryY=1;entryDx=0;entryDy=0;fontStyle=0;fontSize=15;" edge="1" parent="1" target="gIlKsOwYRyPRbe765wBf-16">
          <mxGeometry width="50" height="50" relative="1" as="geometry">
            <mxPoint x="420" y="670" as="sourcePoint" />
            <mxPoint x="419.5" y="160" as="targetPoint" />
          </mxGeometry>
        </mxCell>
        <mxCell id="gIlKsOwYRyPRbe765wBf-21" value="" style="endArrow=classic;html=1;rounded=0;exitX=0.9;exitY=0.15;exitDx=0;exitDy=0;exitPerimeter=0;fontStyle=0;fontSize=15;" edge="1" parent="1" source="gIlKsOwYRyPRbe765wBf-11">
          <mxGeometry width="50" height="50" relative="1" as="geometry">
            <mxPoint x="570" y="400" as="sourcePoint" />
            <mxPoint x="420" y="200" as="targetPoint" />
          </mxGeometry>
        </mxCell>
        <mxCell id="gIlKsOwYRyPRbe765wBf-24" value="запуск программу" style="edgeLabel;html=1;align=center;verticalAlign=middle;resizable=0;points=[];fontStyle=0;fontSize=15;" vertex="1" connectable="0" parent="gIlKsOwYRyPRbe765wBf-21">
          <mxGeometry x="-0.5084" y="3" relative="1" as="geometry">
            <mxPoint x="48" y="-8" as="offset" />
          </mxGeometry>
        </mxCell>
        <mxCell id="gIlKsOwYRyPRbe765wBf-22" value="" style="endArrow=classic;html=1;rounded=0;entryX=0.9;entryY=0.393;entryDx=0;entryDy=0;entryPerimeter=0;dashed=1;fontStyle=0;fontSize=15;" edge="1" parent="1" target="gIlKsOwYRyPRbe765wBf-11">
          <mxGeometry width="50" height="50" relative="1" as="geometry">
            <mxPoint x="420" y="235" as="sourcePoint" />
            <mxPoint x="620" y="350" as="targetPoint" />
          </mxGeometry>
        </mxCell>
        <mxCell id="gIlKsOwYRyPRbe765wBf-26" value="&lt;span style=&quot;font-size: 15px; text-align: left; background-color: rgb(248, 249, 250);&quot;&gt;приветствие пользователя&lt;/span&gt;" style="edgeLabel;html=1;align=center;verticalAlign=middle;resizable=0;points=[];fontStyle=0;fontSize=15;" vertex="1" connectable="0" parent="gIlKsOwYRyPRbe765wBf-22">
          <mxGeometry x="0.2373" y="-1" relative="1" as="geometry">
            <mxPoint x="26" y="-14" as="offset" />
          </mxGeometry>
        </mxCell>
        <mxCell id="gIlKsOwYRyPRbe765wBf-23" value="" style="endArrow=classic;html=1;rounded=0;exitX=0.9;exitY=0.629;exitDx=0;exitDy=0;exitPerimeter=0;fontStyle=0;fontSize=15;" edge="1" parent="1">
          <mxGeometry width="50" height="50" relative="1" as="geometry">
            <mxPoint x="184" y="277.06000000000006" as="sourcePoint" />
            <mxPoint x="420" y="277" as="targetPoint" />
          </mxGeometry>
        </mxCell>
        <mxCell id="gIlKsOwYRyPRbe765wBf-27" value="Указать информацию из интернета" style="edgeLabel;html=1;align=center;verticalAlign=middle;resizable=0;points=[];fontStyle=0;fontSize=15;" vertex="1" connectable="0" parent="gIlKsOwYRyPRbe765wBf-23">
          <mxGeometry x="-0.2881" relative="1" as="geometry">
            <mxPoint x="32" y="22" as="offset" />
          </mxGeometry>
        </mxCell>
        <mxCell id="gIlKsOwYRyPRbe765wBf-28" style="edgeStyle=orthogonalEdgeStyle;rounded=0;orthogonalLoop=1;jettySize=auto;html=1;exitX=1;exitY=0;exitDx=0;exitDy=0;entryX=1;entryY=0.386;entryDx=0;entryDy=0;entryPerimeter=0;dashed=1;fontStyle=0;fontSize=15;" edge="1" parent="1" source="gIlKsOwYRyPRbe765wBf-16" target="gIlKsOwYRyPRbe765wBf-16">
          <mxGeometry relative="1" as="geometry">
            <Array as="points">
              <mxPoint x="425" y="320" />
              <mxPoint x="445" y="320" />
              <mxPoint x="445" y="364" />
            </Array>
          </mxGeometry>
        </mxCell>
        <mxCell id="gIlKsOwYRyPRbe765wBf-29" value="обработка" style="edgeLabel;html=1;align=center;verticalAlign=middle;resizable=0;points=[];fontStyle=0;fontSize=15;" vertex="1" connectable="0" parent="gIlKsOwYRyPRbe765wBf-28">
          <mxGeometry x="0.3404" relative="1" as="geometry">
            <mxPoint x="51" y="-83" as="offset" />
          </mxGeometry>
        </mxCell>
        <mxCell id="gIlKsOwYRyPRbe765wBf-30" value="" style="endArrow=classic;html=1;rounded=0;dashed=1;fontStyle=0;fontSize=15;" edge="1" parent="1">
          <mxGeometry width="50" height="50" relative="1" as="geometry">
            <mxPoint x="410" y="430" as="sourcePoint" />
            <mxPoint x="190" y="430" as="targetPoint" />
          </mxGeometry>
        </mxCell>
        <mxCell id="gIlKsOwYRyPRbe765wBf-31" value="передача результат пользователя" style="edgeLabel;html=1;align=center;verticalAlign=middle;resizable=0;points=[];fontStyle=0;fontSize=15;" vertex="1" connectable="0" parent="gIlKsOwYRyPRbe765wBf-30">
          <mxGeometry x="0.2679" y="1" relative="1" as="geometry">
            <mxPoint x="28" y="-15" as="offset" />
          </mxGeometry>
        </mxCell>
        <mxCell id="gIlKsOwYRyPRbe765wBf-35" value="" style="endArrow=classic;html=1;rounded=0;fontSize=15;dashed=1;" edge="1" parent="1">
          <mxGeometry width="50" height="50" relative="1" as="geometry">
            <mxPoint x="420" y="580" as="sourcePoint" />
            <mxPoint x="190" y="580" as="targetPoint" />
          </mxGeometry>
        </mxCell>
        <mxCell id="gIlKsOwYRyPRbe765wBf-38" value="передача результат пользователя" style="edgeLabel;html=1;align=center;verticalAlign=middle;resizable=0;points=[];fontSize=15;" vertex="1" connectable="0" parent="gIlKsOwYRyPRbe765wBf-35">
          <mxGeometry x="-0.4174" y="2" relative="1" as="geometry">
            <mxPoint x="-53" y="18" as="offset" />
          </mxGeometry>
        </mxCell>
        <mxCell id="gIlKsOwYRyPRbe765wBf-36" value="" style="endArrow=classic;html=1;rounded=0;fontSize=15;exitX=1;exitY=0.75;exitDx=0;exitDy=0;" edge="1" parent="1" source="gIlKsOwYRyPRbe765wBf-13">
          <mxGeometry width="50" height="50" relative="1" as="geometry">
            <mxPoint x="410" y="660" as="sourcePoint" />
            <mxPoint x="408" y="625" as="targetPoint" />
          </mxGeometry>
        </mxCell>
        <mxCell id="gIlKsOwYRyPRbe765wBf-39" value="выход из программы" style="edgeLabel;html=1;align=center;verticalAlign=middle;resizable=0;points=[];fontSize=15;" vertex="1" connectable="0" parent="gIlKsOwYRyPRbe765wBf-36">
          <mxGeometry x="-0.2208" y="-6" relative="1" as="geometry">
            <mxPoint x="24" y="11" as="offset" />
          </mxGeometry>
        </mxCell>
        <mxCell id="gIlKsOwYRyPRbe765wBf-17" value="" style="rounded=0;whiteSpace=wrap;html=1;fontStyle=0;fontSize=15;" vertex="1" parent="1">
          <mxGeometry x="655" y="370" width="10" height="60" as="geometry" />
        </mxCell>
        <mxCell id="gIlKsOwYRyPRbe765wBf-40" value="" style="endArrow=none;dashed=1;html=1;rounded=0;entryX=0.5;entryY=1;entryDx=0;entryDy=0;fontStyle=0;fontSize=15;" edge="1" parent="1" target="gIlKsOwYRyPRbe765wBf-17">
          <mxGeometry width="50" height="50" relative="1" as="geometry">
            <mxPoint x="660" y="730" as="sourcePoint" />
            <mxPoint x="659.5" y="160.0000000000001" as="targetPoint" />
          </mxGeometry>
        </mxCell>
        <mxCell id="gIlKsOwYRyPRbe765wBf-42" value="" style="endArrow=classic;html=1;rounded=0;fontSize=15;entryX=0.143;entryY=0.136;entryDx=0;entryDy=0;entryPerimeter=0;" edge="1" parent="1" target="gIlKsOwYRyPRbe765wBf-17">
          <mxGeometry width="50" height="50" relative="1" as="geometry">
            <mxPoint x="430" y="379" as="sourcePoint" />
            <mxPoint x="410" y="320" as="targetPoint" />
          </mxGeometry>
        </mxCell>
        <mxCell id="gIlKsOwYRyPRbe765wBf-43" value="отправка запроса" style="edgeLabel;html=1;align=center;verticalAlign=middle;resizable=0;points=[];fontSize=15;" vertex="1" connectable="0" parent="gIlKsOwYRyPRbe765wBf-42">
          <mxGeometry x="-0.5962" relative="1" as="geometry">
            <mxPoint x="74" y="-9" as="offset" />
          </mxGeometry>
        </mxCell>
        <mxCell id="gIlKsOwYRyPRbe765wBf-44" value="" style="endArrow=classic;html=1;rounded=0;dashed=1;fontSize=15;" edge="1" parent="1">
          <mxGeometry width="50" height="50" relative="1" as="geometry">
            <mxPoint x="650" y="405" as="sourcePoint" />
            <mxPoint x="430" y="405" as="targetPoint" />
          </mxGeometry>
        </mxCell>
        <mxCell id="gIlKsOwYRyPRbe765wBf-47" value="передача результат&amp;nbsp;" style="edgeLabel;html=1;align=center;verticalAlign=middle;resizable=0;points=[];fontSize=15;" vertex="1" connectable="0" parent="gIlKsOwYRyPRbe765wBf-44">
          <mxGeometry x="-0.2133" y="1" relative="1" as="geometry">
            <mxPoint x="-24" y="9" as="offset" />
          </mxGeometry>
        </mxCell>
        <mxCell id="gIlKsOwYRyPRbe765wBf-59" value="" style="endArrow=classic;html=1;rounded=0;fontSize=15;exitX=1;exitY=0.924;exitDx=0;exitDy=0;exitPerimeter=0;entryX=1.125;entryY=0.949;entryDx=0;entryDy=0;entryPerimeter=0;" edge="1" parent="1" target="gIlKsOwYRyPRbe765wBf-16">
          <mxGeometry width="50" height="50" relative="1" as="geometry">
            <mxPoint x="425" y="647.1600000000001" as="sourcePoint" />
            <mxPoint x="493" y="704" as="targetPoint" />
            <Array as="points">
              <mxPoint x="483" y="647" />
              <mxPoint x="483" y="723" />
            </Array>
          </mxGeometry>
        </mxCell>
        <mxCell id="gIlKsOwYRyPRbe765wBf-60" value="конец &lt;br&gt;работы &lt;br&gt;программы" style="edgeLabel;html=1;align=center;verticalAlign=middle;resizable=0;points=[];fontSize=15;" vertex="1" connectable="0" parent="gIlKsOwYRyPRbe765wBf-59">
          <mxGeometry x="0.2634" y="3" relative="1" as="geometry">
            <mxPoint x="40" y="-26" as="offset" />
          </mxGeometry>
        </mxCell>
      </root>
    </mxGraphModel>
  </diagram>
</mxfile>
